# xmcd
#
# Track frame offsets: 
#        150
#        23327
#        41145
#
# Disc length: 768 seconds
#
# Revision: 1
# Processed by: cddbd v1.5.2PL0 Copyright (c) Steve Scherf et al.
# Submitted via: ExactAudioCopy v1.0b3
#
DISCID=1802fe03
DTITLE=Various Artist - Columbia Records Presents Young Soul Power
DYEAR=1998
DGENRE=Soul
TTITLE0=Destiny's Child - Killing Time
TTITLE1=Kimberly Scott - Never Can Say Goodbye
TTITLE2=Jagged Edge - The Way You Talk
EXTD=
EXTT0=
EXTT1=
EXTT2=
PLAYORDER=
